{
	"nodes":[{
		"name":"超重",
		"translation":[0.0,
		0.0,
		0.0],
		"rotation":[0.0,
		0.0,
		0.0,
		-1.0],
		"scale":[1.0,
		1.0,
		1.0],
		"mesh":0
	}],
	"asset":{
		"version":"2.0",
		"generator":"Created using the official Cinema 4D glTF Exporter 1.000x284978"
	},
	"scenes":[{
		"nodes":[0]
	}],
	"meshes":[{
		"name":"超重",
		"primitives":[{
			"attributes":{
				"POSITION":1,
				"NORMAL":2,
				"TEXCOORD_0":3
			},
			"indices":0
		}]
	}],
	"buffers":[{
		"uri":"data:application/octet-stream;base64,",
		"byteLength":887456
	}],
	"accessors":[{
		"max":[20775],
		"bufferView":0,
		"type":"SCALAR",
		"componentType":5123,
		"count":111312,
		"byteOffset":0,
		"min":[0]
	},
	{
		"max":[0.40286949276924136,
		1.8194295167922974,
		0.20660144090652467],
		"bufferView":1,
		"type":"VEC3",
		"componentType":5126,
		"count":20776,
		"byteOffset":0,
		"min":[-0.40286949276924136,
		-0.014259729534387589,
		-0.20660144090652467]
	},
	{
		"max":[0.9999952912330627,
		0.9997596144676209,
		0.9999135136604309],
		"bufferView":1,
		"type":"VEC3",
		"componentType":5126,
		"count":20776,
		"byteOffset":12,
		"min":[-0.9999509453773499,
		-0.9999380111694336,
		-0.9999896287918091]
	},
	{
		"max":[0.9935631155967712,
		0.9964562654495239],
		"bufferView":1,
		"type":"VEC2",
		"componentType":5126,
		"count":20776,
		"byteOffset":24,
		"min":[0.0,
		0.0]
	}],
	"bufferViews":[{
		"buffer":0,
		"byteOffset":0,
		"byteLength":222624,
		"target":34963
	},
	{
		"buffer":0,
		"byteOffset":222624,
		"byteLength":664832,
		"target":34962,
		"byteStride":32
	}]
}