{
    "asset" : {
        "generator" : "Khronos glTF Blender I/O v1.7.30",
        "version" : "2.0"
    },
    "scene" : 0,
    "scenes" : [
        {
            "name" : "Scene",
            "nodes" : [
                0,
                1,
                2
            ]
        }
    ],
    "nodes" : [
        {
            "mesh" : 0,
            "name" : "Body.001",
            "scale" : [
                0.014000000432133675,
                0.014000000432133675,
                0.014000000432133675
            ]
        },
        {
            "mesh" : 1,
            "name" : "Skeletal",
            "scale" : [
                0.014000000432133675,
                0.014000000432133675,
                0.014000000432133675
            ]
        },
        {
            "mesh" : 2,
            "name" : "Circulatory_Heart",
            "scale" : [
                0.014000000432133675,
                0.014000000432133675,
                0.014000000432133675
            ]
        }
    ],
    "materials" : [
        {
            "alphaMode" : "BLEND",
            "doubleSided" : true,
            "emissiveFactor" : [
                0.12982964515686035,
                1,
                1
            ],
            "name" : "E.01",
            "pbrMetallicRoughness" : {}
        },
        {
            "alphaMode" : "BLEND",
            "doubleSided" : true,
            "emissiveFactor" : [
                0.06491482257843018,
                0.5596621334552765,
                1
            ],
            "name" : "E.003",
            "pbrMetallicRoughness" : {}
        },
        {
            "alphaMode" : "BLEND",
            "emissiveFactor" : [
                1,
                0.25267600268125534,
                0.048187773674726486
            ],
            "name" : "E.002",
            "pbrMetallicRoughness" : {
                "baseColorFactor" : [
                    0.8000000715255737,
                    0.003905948018655181,
                    0.0435941107571125,
                    1
                ],
                "metallicFactor" : 0,
                "roughnessFactor" : 0.4575757682323456
            }
        }
    ],
    "meshes" : [
        {
            "name" : "Mesh_0.001",
            "primitives" : [
                {
                    "attributes" : {
                        "POSITION" : 0,
                        "NORMAL" : 1
                    },
                    "indices" : 2,
                    "material" : 0
                }
            ]
        },
        {
            "name" : "Mesh_1",
            "primitives" : [
                {
                    "attributes" : {
                        "POSITION" : 3,
                        "NORMAL" : 4
                    },
                    "indices" : 5,
                    "material" : 1
                }
            ]
        },
        {
            "name" : "Mesh_2",
            "primitives" : [
                {
                    "attributes" : {
                        "POSITION" : 6,
                        "NORMAL" : 7
                    },
                    "indices" : 8,
                    "material" : 2
                }
            ]
        }
    ],
    "accessors" : [
        {
            "bufferView" : 0,
            "componentType" : 5126,
            "count" : 19457,
            "max" : [
                8.659839630126953,
                18.445283889770508,
                1.4149478673934937
            ],
            "min" : [
                -8.659928321838379,
                -0.07082214206457138,
                -2.321627616882324
            ],
            "type" : "VEC3"
        },
        {
            "bufferView" : 1,
            "componentType" : 5126,
            "count" : 19457,
            "type" : "VEC3"
        },
        {
            "bufferView" : 2,
            "componentType" : 5123,
            "count" : 112026,
            "type" : "SCALAR"
        },
        {
            "bufferView" : 3,
            "componentType" : 5126,
            "count" : 49824,
            "max" : [
                8.485630989074707,
                18.321748733520508,
                1.2664728164672852
            ],
            "min" : [
                -8.485734939575195,
                0.05911712720990181,
                -2.132167100906372
            ],
            "type" : "VEC3"
        },
        {
            "bufferView" : 4,
            "componentType" : 5126,
            "count" : 49824,
            "type" : "VEC3"
        },
        {
            "bufferView" : 5,
            "componentType" : 5123,
            "count" : 209058,
            "type" : "SCALAR"
        },
        {
            "bufferView" : 6,
            "componentType" : 5126,
            "count" : 1755,
            "max" : [
                0.9062303304672241,
                14.690990447998047,
                -0.32675138115882874
            ],
            "min" : [
                -0.809300422668457,
                13.524833679199219,
                -1.2858998775482178
            ],
            "type" : "VEC3"
        },
        {
            "bufferView" : 7,
            "componentType" : 5126,
            "count" : 1755,
            "type" : "VEC3"
        },
        {
            "bufferView" : 8,
            "componentType" : 5123,
            "count" : 7587,
            "type" : "SCALAR"
        }
    ],
    "bufferViews" : [
        {
            "buffer" : 0,
            "byteLength" : 233484,
            "byteOffset" : 0
        },
        {
            "buffer" : 0,
            "byteLength" : 233484,
            "byteOffset" : 233484
        },
        {
            "buffer" : 0,
            "byteLength" : 224052,
            "byteOffset" : 466968
        },
        {
            "buffer" : 0,
            "byteLength" : 597888,
            "byteOffset" : 691020
        },
        {
            "buffer" : 0,
            "byteLength" : 597888,
            "byteOffset" : 1288908
        },
        {
            "buffer" : 0,
            "byteLength" : 418116,
            "byteOffset" : 1886796
        },
        {
            "buffer" : 0,
            "byteLength" : 21060,
            "byteOffset" : 2304912
        },
        {
            "buffer" : 0,
            "byteLength" : 21060,
            "byteOffset" : 2325972
        },
        {
            "buffer" : 0,
            "byteLength" : 15174,
            "byteOffset" : 2347032
        }
    ],
    "buffers" : [
        {
            "byteLength" : 2362208,
            "uri" : "data:application/octet-stream;base64,"
        }
    ]
}
