{
	"asset":{
		"version":"2.0",
		"generator":"Created using the official Cinema 4D glTF Exporter 1.000x284978"
	},
	"scenes":[{
		"nodes":[0,
		1]
	}],
	"nodes":[{
		"name":"Torus (Copy)",
		"translation":[0.010088012553751469,
		0.14995461702346803,
		0.05939004570245743],
		"rotation":[-0.48480960726737978,
		0.0,
		0.0,
		-0.874619722366333],
		"scale":[1.0,
		1.0,
		1.0],
		"mesh":0
	},
	{
		"name":"Respiratory_Larynx_Trachea_Bronc",
		"translation":[0.0,
		0.0,
		0.0],
		"rotation":[0.0,
		0.0,
		0.0,
		-1.0],
		"scale":[1.0,
		1.0,
		1.0],
		"mesh":1
	}],
	"meshes":[{
		"name":"Torus (Copy)",
		"primitives":[{
			"attributes":{
				"POSITION":1,
				"NORMAL":2,
				"TEXCOORD_0":3
			},
			"indices":0
		}]
	},
	{
		"name":"Respiratory_Larynx_Trachea_Bronc",
		"primitives":[{
			"attributes":{
				"POSITION":9,
				"NORMAL":10
			},
			"indices":8
		}]
	}],
	"accessors":[{
		"bufferView":0,
		"type":"SCALAR",
		"componentType":5123,
		"count":2304,
		"byteOffset":0,
		"min":[0],
		"max":[428]
	},
	{
		"bufferView":1,
		"type":"VEC3",
		"componentType":5126,
		"count":429,
		"byteOffset":0,
		"min":[-0.007000000216066837,
		-0.0010000000474974514,
		-0.007000000216066837],
		"max":[0.007000000216066837,
		0.0010000000474974514,
		0.007000000216066837]
	},
	{
		"bufferView":1,
		"type":"VEC3",
		"componentType":5126,
		"count":429,
		"byteOffset":12,
		"min":[-1.0,
		-0.9999613165855408,
		-1.0],
		"max":[1.0,
		0.9999613165855408,
		1.0]
	},
	{
		"bufferView":1,
		"type":"VEC2",
		"componentType":5126,
		"count":429,
		"byteOffset":24,
		"min":[0.0,
		0.0],
		"max":[1.0,
		1.0]
	},
	{
		"bufferView":2,
		"type":"SCALAR",
		"componentType":5126,
		"count":361,
		"byteOffset":0,
		"min":[0.0],
		"max":[12.0]
	},
	{
		"bufferView":2,
		"type":"VEC3",
		"componentType":5126,
		"count":361,
		"byteOffset":1444,
		"min":[-0.010623213835060597,
		-0.05089595913887024,
		-0.02338419109582901],
		"max":[0.09559467434883118,
		0.16023534536361695,
		0.0607423260807991]
	},
	{
		"bufferView":3,
		"type":"SCALAR",
		"componentType":5126,
		"count":361,
		"byteOffset":0,
		"min":[0.0],
		"max":[12.0]
	},
	{
		"bufferView":3,
		"type":"VEC4",
		"componentType":5126,
		"count":361,
		"byteOffset":1444,
		"min":[-0.7071067690849304,
		-8.6582417466579e-17,
		0.0,
		-1.0],
		"max":[1.0,
		0.0,
		8.6582417466579e-17,
		0.6946583986282349]
	},
	{
		"bufferView":4,
		"type":"SCALAR",
		"componentType":5123,
		"count":180951,
		"byteOffset":0,
		"min":[0],
		"max":[30151]
	},
	{
		"bufferView":5,
		"type":"VEC3",
		"componentType":5126,
		"count":30152,
		"byteOffset":0,
		"min":[-0.11829178035259247,
		-0.16646873950958253,
		-0.07888751477003098],
		"max":[0.11829178035259247,
		0.16646873950958253,
		0.07888751477003098]
	},
	{
		"bufferView":5,
		"type":"VEC3",
		"componentType":5126,
		"count":30152,
		"byteOffset":12,
		"min":[-0.9999783635139465,
		-0.9998542070388794,
		-0.9999472498893738],
		"max":[0.9999565482139587,
		0.9999616742134094,
		0.9998372197151184]
	}],
	"bufferViews":[{
		"buffer":0,
		"byteOffset":0,
		"byteLength":4608,
		"target":34963
	},
	{
		"buffer":0,
		"byteOffset":4608,
		"byteLength":13728,
		"target":34962,
		"byteStride":32
	},
	{
		"buffer":1,
		"byteOffset":0,
		"byteLength":5776
	},
	{
		"buffer":1,
		"byteOffset":5776,
		"byteLength":7220
	},
	{
		"buffer":2,
		"byteOffset":0,
		"byteLength":361902,
		"target":34963
	},
	{
		"buffer":2,
		"byteOffset":361904,
		"byteLength":723648,
		"target":34962,
		"byteStride":24
	}],
	"animations":[{
		"samplers":[{
			"input":4,
			"interpolation":"LINEAR",
			"output":5
		},
		{
			"input":6,
			"interpolation":"LINEAR",
			"output":7
		}],
		"channels":[{
			"sampler":0,
			"target":{
				"node":0,
				"path":"translation"
			}
		},
		{
			"sampler":1,
			"target":{
				"node":0,
				"path":"rotation"
			}
		}]
	}],
	"buffers":[{
		"uri":"data:application/octet-stream;base64,",
		"byteLength":18336
	},
	{
		"uri":"data:application/octet-stream;base64,",
		"byteLength":12996
	},
	{
		"uri":"data:application/octet-stream;base64,",
		"byteLength":1085552
	}]
}