{
	"asset":{
		"version":"2.0",
		"generator":"Created using the official Cinema 4D glTF Exporter 1.000x290161"
	},
	"scenes":[{
		"nodes":[0]
	}],
	"nodes":[{
		"name":"心脏",
		"translation":[0.0023846186231821777,
		1.4106745719909669,
		-0.07316236197948456],
		"rotation":[0.0,
		0.0,
		0.0,
		-1.0],
		"scale":[1.0,
		1.0,
		1.0],
		"mesh":0
	}],
	"meshes":[{
		"primitives":[{
			"attributes":{
				"POSITION":1,
				"NORMAL":2,
				"TEXCOORD_0":3
			},
			"indices":0,
			"material":0
		}]
	}],
	"accessors":[{
		"type":"SCALAR",
		"bufferView":0,
		"componentType":5123,
		"count":4827,
		"byteOffset":0,
		"min":[0],
		"max":[992]
	},
	{
		"type":"VEC3",
		"bufferView":1,
		"componentType":5126,
		"count":993,
		"byteOffset":0,
		"min":[-0.08140908181667328,
		-0.055162202566862109,
		-0.04752066358923912],
		"max":[0.08140908181667328,
		0.055162202566862109,
		0.04752066358923912]
	},
	{
		"type":"VEC3",
		"bufferView":1,
		"componentType":5126,
		"count":993,
		"byteOffset":12,
		"min":[-0.9986334443092346,
		-0.999392569065094,
		-0.9984986782073975],
		"max":[0.9981889128684998,
		0.9982540607452393,
		0.9995553493499756]
	},
	{
		"type":"VEC2",
		"bufferView":1,
		"componentType":5126,
		"count":993,
		"byteOffset":24,
		"min":[0.0,
		0.018754005432128907],
		"max":[0.980787992477417,
		1.0]
	}],
	"bufferViews":[{
		"buffer":0,
		"byteOffset":0,
		"byteLength":9654,
		"target":34963
	},
	{
		"buffer":0,
		"byteOffset":9656,
		"byteLength":31776,
		"target":34962,
		"byteStride":32
	}],
	"buffers":[{
		"uri":"data:application/octet-stream;base64,",
		"byteLength":41432
	}],
	"materials":[{
		"pbrMetallicRoughness":{
			"baseColorFactor":[1.0,
			1.0,
			1.0,
			1.0],
			"metallicFactor":1.0,
			"roughnessFactor":1.0
		},
		"emissiveFactor":[0.0,
		0.0,
		0.0],
		"alphaMode":"OPAQUE",
		"doubleSided":true,
		"name":""
	}]
}