<?xml version="1.0" encoding="UTF-8"?>
<svg width="20px" height="20px" viewBox="0 0 20 20" version="1.1" xmlns="http://www.w3.org/2000/svg" xmlns:xlink="http://www.w3.org/1999/xlink">
    <title>对比</title>
    <defs>
        <filter id="filter-1">
            <feColorMatrix in="SourceGraphic" type="matrix" values="0 0 0 0 0.188235 0 0 0 0 0.823529 0 0 0 0 0.741176 0 0 0 1.000000 0"></feColorMatrix>
        </filter>
    </defs>
    <g id="页面-1" stroke="none" stroke-width="1" fill="none" fill-rule="evenodd">
        <g id="对比" transform="translate(-1086.000000, -116.000000)" filter="url(#filter-1)">
            <g transform="translate(1086.000000, 116.000000)">
                <rect id="矩形" fill="#000000" fill-rule="nonzero" opacity="0" x="0" y="0" width="20" height="20"></rect>
                <path d="M2.27272727,16.3636364 L7.72727273,16.3636364 L7.72727273,18.1818182 L0.454545449,18.1818182 L0.454545449,1.81818182 L7.72727273,1.81818182 L7.72727273,3.63636363 L2.27272727,3.63636363 L2.27272727,16.3636364 Z M12.2727273,16.3636364 L14.0909091,16.3636364 L14.0909091,18.1818182 L12.2727273,18.1818182 L12.2727273,16.3636364 Z M15,16.3636364 L16.8181818,16.3636364 L16.8181818,18.1818182 L15,18.1818182 L15,16.3636364 Z M17.7272727,18.1818182 L17.7272727,16.3636364 L19.5454546,16.3636364 L19.5454546,18.1818182 L17.7272727,18.1818182 Z M17.7272727,11.8181818 L17.7272727,10 L19.5454546,10 L19.5454546,11.8181818 L17.7272727,11.8181818 Z M17.7272727,14.5454546 L17.7272727,12.7272727 L19.5454546,12.7272727 L19.5454546,14.5454546 L17.7272727,14.5454546 Z M17.7272727,9.09090908 L17.7272727,7.27272727 L19.5454546,7.27272727 L19.5454546,9.09090908 L17.7272727,9.09090908 Z M17.7272727,6.36363637 L17.7272727,4.54545455 L19.5454546,4.54545455 L19.5454546,6.36363637 L17.7272727,6.36363637 Z M17.7272727,3.63636363 L17.7272727,1.81818182 L19.5454546,1.81818182 L19.5454546,3.63636363 L17.7272727,3.63636363 Z M16.8181818,3.63636363 L15,3.63636363 L15,1.81818182 L16.8181818,1.81818182 L16.8181818,3.63636363 Z M14.0909091,3.63636363 L12.2727273,3.63636363 L12.2727273,1.81818182 L14.0909091,1.81818182 L14.0909091,3.63636363 Z M9.54545455,0 L11.3636364,0 L11.3636364,20 L9.54545455,20 L9.54545455,0 L9.54545455,0 Z" id="形状" fill="#333333" fill-rule="nonzero"></path>
            </g>
        </g>
    </g>
</svg>