{
	"asset":{
		"version":"2.0",
		"generator":"Created using the official Cinema 4D glTF Exporter 1.000x290161"
	},
	"scenes":[{
		"nodes":[0]
	}],
	"nodes":[{
		"name":"Male",
		"children":[1,
		2,
		3,
		4,
		5,
		6,
		7,
		8]
	},
	{
		"name":"Body",
		"mesh":0
	},
	{
		"name":"Eye Reflections Right",
		"translation":[0.029451986774802209,
		1.7342488765716553,
		0.08251773566007614],
		"rotation":[0.0,
		0.0,
		0.0,
		-1.0],
		"scale":[1.0,
		1.0,
		1.0],
		"mesh":1
	},
	{
		"name":"Eye Reflections Left",
		"translation":[-0.03021877445280552,
		1.7342000007629395,
		0.08251773566007614],
		"rotation":[0.0,
		0.0,
		0.0,
		-1.0],
		"scale":[1.0,
		1.0,
		1.0],
		"mesh":2
	},
	{
		"name":"Eye Right",
		"mesh":3
	},
	{
		"name":"Eye Left",
		"mesh":4
	},
	{
		"name":"Top Teeth",
		"mesh":5
	},
	{
		"name":"Bottom Teeth",
		"mesh":6
	},
	{
		"name":"Tongue",
		"mesh":7
	}],
	"meshes":[{
		"primitives":[{
			"attributes":{
				"POSITION":1,
				"NORMAL":2,
				"TEXCOORD_0":3
			},
			"indices":0,
			"material":0
		}]
	},
	{
		"primitives":[{
			"attributes":{
				"POSITION":5,
				"NORMAL":6,
				"TEXCOORD_0":7
			},
			"indices":4,
			"material":1
		}]
	},
	{
		"primitives":[{
			"attributes":{
				"POSITION":9,
				"NORMAL":10,
				"TEXCOORD_0":11
			},
			"indices":8,
			"material":2
		}]
	},
	{
		"primitives":[{
			"attributes":{
				"POSITION":13,
				"NORMAL":14,
				"TEXCOORD_0":15
			},
			"indices":12,
			"material":3
		}]
	},
	{
		"primitives":[{
			"attributes":{
				"POSITION":17,
				"NORMAL":18,
				"TEXCOORD_0":19
			},
			"indices":16,
			"material":4
		}]
	},
	{
		"primitives":[{
			"attributes":{
				"POSITION":21,
				"NORMAL":22,
				"TEXCOORD_0":23
			},
			"indices":20,
			"material":5
		}]
	},
	{
		"primitives":[{
			"attributes":{
				"POSITION":25,
				"NORMAL":26,
				"TEXCOORD_0":27
			},
			"indices":24,
			"material":6
		}]
	},
	{
		"primitives":[{
			"attributes":{
				"POSITION":29,
				"NORMAL":30,
				"TEXCOORD_0":31
			},
			"indices":28,
			"material":7
		}]
	}],
	"accessors":[{
		"bufferView":0,
		"type":"SCALAR",
		"componentType":5123,
		"count":61578,
		"byteOffset":0,
		"min":[0],
		"max":[11189]
	},
	{
		"bufferView":1,
		"type":"VEC3",
		"componentType":5126,
		"count":11190,
		"byteOffset":0,
		"min":[-0.7500558495521545,
		0.024530259892344476,
		-0.13695797324180604],
		"max":[0.7492849826812744,
		1.8446943759918213,
		0.20739050209522248]
	},
	{
		"bufferView":1,
		"type":"VEC3",
		"componentType":5126,
		"count":11190,
		"byteOffset":12,
		"min":[-0.9998964667320252,
		-0.9999604225158691,
		-0.9999874830245972],
		"max":[0.9998964071273804,
		0.9978142380714417,
		0.9999958276748657]
	},
	{
		"bufferView":1,
		"type":"VEC2",
		"componentType":5126,
		"count":11190,
		"byteOffset":24,
		"min":[0.001820000004954636,
		0.0015399998519569636],
		"max":[0.9951599836349487,
		0.9958299398422241]
	},
	{
		"bufferView":2,
		"type":"SCALAR",
		"componentType":5123,
		"count":2880,
		"byteOffset":0,
		"min":[0],
		"max":[513]
	},
	{
		"bufferView":3,
		"type":"VEC3",
		"componentType":5126,
		"count":514,
		"byteOffset":0,
		"min":[-0.015091126784682274,
		-0.014757400378584862,
		-0.015111071988940239],
		"max":[0.015250925906002522,
		0.015074138529598713,
		0.014653009362518788]
	},
	{
		"bufferView":3,
		"type":"VEC3",
		"componentType":5126,
		"count":514,
		"byteOffset":12,
		"min":[-0.9972392320632935,
		-0.9996806979179382,
		-0.9958226680755615],
		"max":[0.9972431659698486,
		0.9996814727783203,
		0.9958140850067139]
	},
	{
		"bufferView":3,
		"type":"VEC2",
		"componentType":5126,
		"count":514,
		"byteOffset":24,
		"min":[0.8993510007858276,
		0.053550995886325839],
		"max":[0.9918490052223206,
		0.1939149796962738]
	},
	{
		"bufferView":4,
		"type":"SCALAR",
		"componentType":5123,
		"count":2880,
		"byteOffset":0,
		"min":[0],
		"max":[513]
	},
	{
		"bufferView":5,
		"type":"VEC3",
		"componentType":5126,
		"count":514,
		"byteOffset":0,
		"min":[-0.015495752915740013,
		-0.014591963030397892,
		-0.014994494616985321],
		"max":[0.01453017070889473,
		0.015004913322627545,
		0.014552587643265725]
	},
	{
		"bufferView":5,
		"type":"VEC3",
		"componentType":5126,
		"count":514,
		"byteOffset":12,
		"min":[-0.9952886700630188,
		-0.9996811151504517,
		-0.9965672492980957],
		"max":[0.9978514313697815,
		0.9996828436851502,
		0.9965569972991943]
	},
	{
		"bufferView":5,
		"type":"VEC2",
		"componentType":5126,
		"count":514,
		"byteOffset":24,
		"min":[0.8993510007858276,
		0.053550995886325839],
		"max":[0.9918490052223206,
		0.1939149796962738]
	},
	{
		"bufferView":6,
		"type":"SCALAR",
		"componentType":5123,
		"count":2880,
		"byteOffset":0,
		"min":[0],
		"max":[513]
	},
	{
		"bufferView":7,
		"type":"VEC3",
		"componentType":5126,
		"count":514,
		"byteOffset":0,
		"min":[0.014613119885325432,
		1.7197381258010865,
		0.06765925884246826],
		"max":[0.04444798082113266,
		1.7490710020065308,
		0.09692580997943878]
	},
	{
		"bufferView":7,
		"type":"VEC3",
		"componentType":5126,
		"count":514,
		"byteOffset":12,
		"min":[-0.9972392320632935,
		-0.9996806979179382,
		-0.9958227872848511],
		"max":[0.9972432255744934,
		0.9996814131736755,
		0.9958141446113586]
	},
	{
		"bufferView":7,
		"type":"VEC2",
		"componentType":5126,
		"count":514,
		"byteOffset":24,
		"min":[0.8993510007858276,
		0.053550995886325839],
		"max":[0.9918490052223206,
		0.1939149796962738]
	},
	{
		"bufferView":8,
		"type":"SCALAR",
		"componentType":5123,
		"count":2880,
		"byteOffset":0,
		"min":[0],
		"max":[513]
	},
	{
		"bufferView":9,
		"type":"VEC3",
		"componentType":5126,
		"count":514,
		"byteOffset":0,
		"min":[-0.045576311647892,
		1.7197381258010865,
		0.0676569864153862],
		"max":[-0.015818210318684579,
		1.7490710020065308,
		0.09694051742553711]
	},
	{
		"bufferView":9,
		"type":"VEC3",
		"componentType":5126,
		"count":514,
		"byteOffset":12,
		"min":[-0.9952886700630188,
		-0.9996811151504517,
		-0.9965671896934509],
		"max":[0.9978514313697815,
		0.9996828436851502,
		0.9965569376945496]
	},
	{
		"bufferView":9,
		"type":"VEC2",
		"componentType":5126,
		"count":514,
		"byteOffset":24,
		"min":[0.8993510007858276,
		0.053550995886325839],
		"max":[0.9918490052223206,
		0.1939149796962738]
	},
	{
		"bufferView":10,
		"type":"SCALAR",
		"componentType":5123,
		"count":2046,
		"byteOffset":0,
		"min":[0],
		"max":[388]
	},
	{
		"bufferView":11,
		"type":"VEC3",
		"componentType":5126,
		"count":389,
		"byteOffset":0,
		"min":[-0.03142895922064781,
		1.6635246276855469,
		0.0598522387444973],
		"max":[0.03063802979886532,
		1.6894780397415162,
		0.10575015842914581]
	},
	{
		"bufferView":11,
		"type":"VEC3",
		"componentType":5126,
		"count":389,
		"byteOffset":12,
		"min":[-0.9989528059959412,
		-0.9993075728416443,
		-0.9719899892807007],
		"max":[0.9996652603149414,
		0.9865772724151611,
		0.9915857911109924]
	},
	{
		"bufferView":11,
		"type":"VEC2",
		"componentType":5126,
		"count":389,
		"byteOffset":24,
		"min":[0.2905220091342926,
		0.2788679599761963],
		"max":[0.403905987739563,
		0.33254897594451907]
	},
	{
		"bufferView":12,
		"type":"SCALAR",
		"componentType":5123,
		"count":2310,
		"byteOffset":0,
		"min":[0],
		"max":[439]
	},
	{
		"bufferView":13,
		"type":"VEC3",
		"componentType":5126,
		"count":440,
		"byteOffset":0,
		"min":[-0.02952031046152115,
		1.6494654417037964,
		0.056908030062913898],
		"max":[0.02912529930472374,
		1.671441912651062,
		0.10129933804273606]
	},
	{
		"bufferView":13,
		"type":"VEC3",
		"componentType":5126,
		"count":440,
		"byteOffset":12,
		"min":[-0.9878519773483276,
		-0.999784529209137,
		-0.9940811395645142],
		"max":[0.9823553562164307,
		0.9983047246932983,
		0.9967066645622253]
	},
	{
		"bufferView":13,
		"type":"VEC2",
		"componentType":5126,
		"count":440,
		"byteOffset":24,
		"min":[0.41121700406074526,
		0.2730019688606262],
		"max":[0.5307210087776184,
		0.32291698455810549]
	},
	{
		"bufferView":14,
		"type":"SCALAR",
		"componentType":5123,
		"count":1320,
		"byteOffset":0,
		"min":[0],
		"max":[235]
	},
	{
		"bufferView":15,
		"type":"VEC3",
		"componentType":5126,
		"count":236,
		"byteOffset":0,
		"min":[-0.019046399742364885,
		1.6460989713668824,
		0.044299330562353137],
		"max":[0.018260030075907708,
		1.6713879108428956,
		0.10035420954227448]
	},
	{
		"bufferView":15,
		"type":"VEC3",
		"componentType":5126,
		"count":236,
		"byteOffset":12,
		"min":[-0.9886159896850586,
		-0.9985796213150024,
		-0.9980536103248596],
		"max":[0.9876156449317932,
		0.9999980330467224,
		0.9972867369651794]
	},
	{
		"bufferView":15,
		"type":"VEC2",
		"componentType":5126,
		"count":236,
		"byteOffset":24,
		"min":[0.8868489861488342,
		0.20321998000144959],
		"max":[0.995576024055481,
		0.2906720042228699]
	}],
	"bufferViews":[{
		"buffer":0,
		"byteOffset":0,
		"byteLength":123156,
		"target":34963
	},
	{
		"buffer":0,
		"byteOffset":123156,
		"byteLength":358080,
		"target":34962,
		"byteStride":32
	},
	{
		"buffer":1,
		"byteOffset":0,
		"byteLength":5760,
		"target":34963
	},
	{
		"buffer":1,
		"byteOffset":5760,
		"byteLength":16448,
		"target":34962,
		"byteStride":32
	},
	{
		"buffer":2,
		"byteOffset":0,
		"byteLength":5760,
		"target":34963
	},
	{
		"buffer":2,
		"byteOffset":5760,
		"byteLength":16448,
		"target":34962,
		"byteStride":32
	},
	{
		"buffer":3,
		"byteOffset":0,
		"byteLength":5760,
		"target":34963
	},
	{
		"buffer":3,
		"byteOffset":5760,
		"byteLength":16448,
		"target":34962,
		"byteStride":32
	},
	{
		"buffer":4,
		"byteOffset":0,
		"byteLength":5760,
		"target":34963
	},
	{
		"buffer":4,
		"byteOffset":5760,
		"byteLength":16448,
		"target":34962,
		"byteStride":32
	},
	{
		"buffer":5,
		"byteOffset":0,
		"byteLength":4092,
		"target":34963
	},
	{
		"buffer":5,
		"byteOffset":4092,
		"byteLength":12448,
		"target":34962,
		"byteStride":32
	},
	{
		"buffer":6,
		"byteOffset":0,
		"byteLength":4620,
		"target":34963
	},
	{
		"buffer":6,
		"byteOffset":4620,
		"byteLength":14080,
		"target":34962,
		"byteStride":32
	},
	{
		"buffer":7,
		"byteOffset":0,
		"byteLength":2640,
		"target":34963
	},
	{
		"buffer":7,
		"byteOffset":2640,
		"byteLength":7552,
		"target":34962,
		"byteStride":32
	}],
	"materials":[{
		"pbrMetallicRoughness":{
			"baseColorFactor":[1.0,
			1.0,
			1.0,
			1.0],
			"metallicFactor":1.0,
			"roughnessFactor":1.0
		},
		"emissiveFactor":[0.0,
		0.0,
		0.0],
		"alphaMode":"OPAQUE",
		"doubleSided":true,
		"name":""
	},
	{
		"pbrMetallicRoughness":{
			"baseColorFactor":[1.0,
			1.0,
			1.0,
			1.0],
			"metallicFactor":1.0,
			"roughnessFactor":1.0
		},
		"emissiveFactor":[0.0,
		0.0,
		0.0],
		"alphaMode":"OPAQUE",
		"doubleSided":true,
		"name":""
	},
	{
		"pbrMetallicRoughness":{
			"baseColorFactor":[1.0,
			1.0,
			1.0,
			1.0],
			"metallicFactor":1.0,
			"roughnessFactor":1.0
		},
		"emissiveFactor":[0.0,
		0.0,
		0.0],
		"alphaMode":"OPAQUE",
		"doubleSided":true,
		"name":""
	},
	{
		"pbrMetallicRoughness":{
			"baseColorFactor":[1.0,
			1.0,
			1.0,
			1.0],
			"metallicFactor":1.0,
			"roughnessFactor":1.0
		},
		"emissiveFactor":[0.0,
		0.0,
		0.0],
		"alphaMode":"OPAQUE",
		"doubleSided":true,
		"name":""
	},
	{
		"pbrMetallicRoughness":{
			"baseColorFactor":[1.0,
			1.0,
			1.0,
			1.0],
			"metallicFactor":1.0,
			"roughnessFactor":1.0
		},
		"emissiveFactor":[0.0,
		0.0,
		0.0],
		"alphaMode":"OPAQUE",
		"doubleSided":true,
		"name":""
	},
	{
		"pbrMetallicRoughness":{
			"baseColorFactor":[1.0,
			1.0,
			1.0,
			1.0],
			"metallicFactor":1.0,
			"roughnessFactor":1.0
		},
		"emissiveFactor":[0.0,
		0.0,
		0.0],
		"alphaMode":"OPAQUE",
		"doubleSided":true,
		"name":""
	},
	{
		"pbrMetallicRoughness":{
			"baseColorFactor":[1.0,
			1.0,
			1.0,
			1.0],
			"metallicFactor":1.0,
			"roughnessFactor":1.0
		},
		"emissiveFactor":[0.0,
		0.0,
		0.0],
		"alphaMode":"OPAQUE",
		"doubleSided":true,
		"name":""
	},
	{
		"pbrMetallicRoughness":{
			"baseColorFactor":[1.0,
			1.0,
			1.0,
			1.0],
			"metallicFactor":1.0,
			"roughnessFactor":1.0
		},
		"emissiveFactor":[0.0,
		0.0,
		0.0],
		"alphaMode":"OPAQUE",
		"doubleSided":true,
		"name":""
	}],
	"buffers":[{
		"uri":"data:application/octet-stream;base64,",
		"byteLength":481236
	},
	{
		"uri":"data:application/octet-stream;base64,",
		"byteLength":22208
	},
	{
		"uri":"data:application/octet-stream;base64,",
		"byteLength":22208
	},
	{
		"uri":"data:application/octet-stream;base64,",
		"byteLength":22208
	},
	{
		"uri":"data:application/octet-stream;base64,",
		"byteLength":22208
	},
	{
		"uri":"data:application/octet-stream;base64,",
		"byteLength":16540
	},
	{
		"uri":"data:application/octet-stream;base64,",
		"byteLength":18700
	},
	{
		"uri":"data:application/octet-stream;base64,",
		"byteLength":10192
	}]
}