{"accessors":[{"bufferView":0,"componentType":5123,"count":112026,"max":[19456],"min":[0],"type":"SCALAR"},{"bufferView":1,"componentType":5126,"count":19457,"max":[8.659839630126953,18.445283889770508,1.4149478673934937],"min":[-8.659928321838379,-0.07082214206457138,-2.321627616882324],"type":"VEC3"},{"bufferView":2,"componentType":5126,"count":19457,"max":[0.99996417760849,0.9997332096099854,0.999984622001648],"min":[-0.9999779462814331,-0.9999668598175049,-0.9998894929885864],"type":"VEC3"},{"bufferView":3,"componentType":5123,"count":209058,"max":[49823],"min":[0],"type":"SCALAR"},{"bufferView":4,"componentType":5126,"count":49824,"max":[8.485630989074707,18.321748733520508,1.2664728164672852],"min":[-8.485734939575195,0.05911712720990181,-2.132167100906372],"type":"VEC3"},{"bufferView":5,"componentType":5126,"count":49824,"max":[0.9999911189079285,0.9999927878379822,0.9998568296432495],"min":[-0.9999911785125732,-0.9999939799308777,-0.9999769926071167],"type":"VEC3"},{"bufferView":6,"componentType":5123,"count":7587,"max":[1754],"min":[0],"type":"SCALAR"},{"bufferView":7,"componentType":5126,"count":1755,"max":[0.9062303304672241,14.690990447998047,-0.32675138115882874],"min":[-0.809300422668457,13.524833679199219,-1.2858998775482178],"type":"VEC3"},{"bufferView":8,"componentType":5126,"count":1755,"max":[0.9990877509117126,0.9987834095954895,0.9997064471244812],"min":[-0.9999006390571594,-0.9997903108596802,-0.9989002346992493],"type":"VEC3"}],"asset":{"copyright":"Master.Y","generator":"Soft8Soft Verge3D for Blender add-on","version":"2.0"},"bufferViews":[{"buffer":0,"byteLength":224052,"byteOffset":0,"target":34963},{"buffer":0,"byteLength":233484,"byteOffset":224052,"target":34962},{"buffer":0,"byteLength":233484,"byteOffset":457536,"target":34962},{"buffer":0,"byteLength":418116,"byteOffset":691020,"target":34963},{"buffer":0,"byteLength":597888,"byteOffset":1109136,"target":34962},{"buffer":0,"byteLength":597888,"byteOffset":1707024,"target":34962},{"buffer":0,"byteLength":15174,"byteOffset":2304912,"target":34963},{"buffer":0,"byteLength":21060,"byteOffset":2320088,"target":34962},{"buffer":0,"byteLength":21060,"byteOffset":2341148,"target":34962}],"buffers":[{"byteLength":2362208,"uri":"Body Anatomy.bin"}],"cameras":[{"extensions":{"S8S_v3d_camera_data":{"controls":"ORBIT","enablePan":true,"moveSpeed":1.0,"orbitMaxDistance":100.0,"orbitMaxPolarAngle":3.1415927410125732,"orbitMaxZoom":100.0,"orbitMinDistance":0.0,"orbitMinPolarAngle":0.0,"orbitMinZoom":0.009999999776482582,"orbitTarget":[0.0,0.0,-0.0],"rotateSpeed":1.0,"viewportFitInitialAspect":1.7777777777777777,"viewportFitType":"AUTO"}},"name":"Camera","perspective":{"aspectRatio":1.7777777777777777,"yfov":0.14971969959714806,"zfar":100.0,"znear":0.10000000149011612},"type":"perspective"}],"extensionsUsed":["S8S_v3d_material_data","S8S_v3d_camera_data","S8S_v3d_mesh_data","S8S_v3d_node_data","S8S_v3d_scene_data"],"materials":[{"alphaMode":"BLEND","doubleSided":true,"extensions":{"S8S_v3d_material_data":{"blendMode":{"blendEquation":32774,"dstRGB":771,"srcRGB":1},"depthWrite":false,"materialIndex":0,"nodeGraph":{"edges":[{"fromNode":3,"fromOutput":0,"toInput":2,"toNode":1},{"fromNode":2,"fromOutput":1,"toInput":0,"toNode":1},{"fromNode":5,"fromOutput":0,"toInput":1,"toNode":1},{"fromNode":1,"fromOutput":0,"toInput":0,"toNode":0}],"nodes":[{"inputs":[[0,0,0,0],[0,0,0,0],[0.0,0.0,0.0]],"is_active_output":true,"name":"Material Output","outputs":[],"type":"OUTPUT_MATERIAL_BL"},{"inputs":[1.0,[0,0,0,0],[0,0,0,0]],"is_active_output":false,"name":"Mix Shader","outputs":[[0,0,0,0]],"type":"MIX_SHADER_BL"},{"inputs":[0.20000000298023224,[0.0,0.0,0.0]],"is_active_output":false,"name":"Layer Weight","outputs":[0.0,0.0],"type":"LAYER_WEIGHT_BL"},{"inputs":[[1.0,0.08422533422708511,0.01606259122490883,1.0],3.0],"is_active_output":false,"name":"Emission","outputs":[[0,0,0,0]],"type":"EMISSION_BL"},{"inputs":[[0.8403295874595642,0.8403295874595642,0.8403295874595642,1.0]],"is_active_output":false,"name":"Transparent BSDF","outputs":[[0,0,0,0]],"type":"BSDF_TRANSPARENT_BL"},{"inputs":[[0.8000000715255737,0.003905948018655181,0.0435941107571125,1.0],0.0,[1.0,0.20000000298023224,0.10000000149011612],[0.800000011920929,0.800000011920929,0.800000011920929,1.0],0.0,0.0,0.0,0.4575757682323456,0.0,0.0,0.0,0.0,0.0,0.029999999329447746,1.4500000476837158,0.0,0.0,[0.0,0.0,0.0,1.0],1.0,1.0,[0.0,0.0,0.0],[0.0,0.0,0.0],[0.0,0.0,0.0]],"is_active_output":false,"name":"Principled BSDF","outputs":[[0,0,0,0]],"type":"BSDF_PRINCIPLED_BL"}]},"renderSide":"DOUBLE","useCastShadows":true}},"name":"E.002"},{"alphaMode":"BLEND","doubleSided":true,"extensions":{"S8S_v3d_material_data":{"blendMode":{"blendEquation":32774,"dstRGB":771,"srcRGB":1},"depthWrite":false,"materialIndex":0,"nodeGraph":{"edges":[{"fromNode":1,"fromOutput":1,"toInput":0,"toNode":2},{"fromNode":0,"fromOutput":0,"toInput":1,"toNode":2},{"fromNode":4,"fromOutput":0,"toInput":2,"toNode":2},{"fromNode":2,"fromOutput":0,"toInput":0,"toNode":3}],"nodes":[{"inputs":[[1.0,1.0,1.0,1.0]],"is_active_output":false,"name":"Transparent BSDF","outputs":[[0,0,0,0]],"type":"BSDF_TRANSPARENT_BL"},{"inputs":[0.10000000149011612,[0.0,0.0,0.0]],"is_active_output":false,"name":"Layer Weight","outputs":[0.0,0.0],"type":"LAYER_WEIGHT_BL"},{"inputs":[1.0,[0,0,0,0],[0,0,0,0]],"is_active_output":false,"name":"Mix Shader","outputs":[[0,0,0,0]],"type":"MIX_SHADER_BL"},{"inputs":[[0,0,0,0],[0,0,0,0],[0.0,0.0,0.0]],"is_active_output":true,"name":"Material Output","outputs":[],"type":"OUTPUT_MATERIAL_BL"},{"inputs":[[0.012982964515686035,0.1119324266910553,1.0,1.0],5.0],"is_active_output":false,"name":"Emission","outputs":[[0,0,0,0]],"type":"EMISSION_BL"}]},"renderSide":"DOUBLE","useCastShadows":true}},"name":"E.003"},{"alphaMode":"BLEND","doubleSided":true,"extensions":{"S8S_v3d_material_data":{"blendMode":{"blendEquation":32774,"dstRGB":771,"srcRGB":1},"depthWrite":false,"materialIndex":0,"nodeGraph":{"edges":[{"fromNode":1,"fromOutput":0,"toInput":2,"toNode":4},{"fromNode":3,"fromOutput":0,"toInput":1,"toNode":4},{"fromNode":4,"fromOutput":0,"toInput":0,"toNode":0},{"fromNode":2,"fromOutput":1,"toInput":0,"toNode":4},{"fromNode":5,"fromOutput":1,"toInput":1,"toNode":2}],"nodes":[{"inputs":[[0,0,0,0],[0,0,0,0],[0.0,0.0,0.0]],"is_active_output":true,"name":"Material Output","outputs":[],"type":"OUTPUT_MATERIAL_BL"},{"inputs":[[0.012982964515686035,0.1119324266910553,1.0,1.0],10.0],"is_active_output":false,"name":"Emission","outputs":[[0,0,0,0]],"type":"EMISSION_BL"},{"inputs":[0.4000000059604645,[0.0,0.0,0.0]],"is_active_output":false,"name":"Layer Weight","outputs":[0.0,0.0],"type":"LAYER_WEIGHT_BL"},{"inputs":[[1.0,1.0,1.0,1.0]],"is_active_output":false,"name":"Transparent BSDF","outputs":[[0,0,0,0]],"type":"BSDF_TRANSPARENT_BL"},{"inputs":[1.0,[0,0,0,0],[0,0,0,0]],"is_active_output":false,"name":"Mix Shader","outputs":[[0,0,0,0]],"type":"MIX_SHADER_BL"},{"inputs":[],"is_active_output":false,"name":"Geometry","outputs":[[0.0,0.0,0.0],[0.0,0.0,0.0],[0.0,0.0,0.0],[0.0,0.0,0.0],[0.0,0.0,0.0],[0.0,0.0,0.0],0.0,0.0,0.0],"type":"NEW_GEOMETRY_BL"}]},"renderSide":"DOUBLE","useCastShadows":true}},"name":"E.01"},{"extensions":{"S8S_v3d_material_data":{"materialIndex":0,"nodeGraph":{"edges":[{"fromNode":1,"fromOutput":0,"toInput":0,"toNode":0}],"nodes":[{"inputs":[[0,0,0,0],[0,0,0,0]],"is_active_output":true,"name":"World Output","outputs":[],"type":"OUTPUT_WORLD_BL"},{"inputs":[[0.05087608844041824,0.05087608844041824,0.05087608844041824,1.0],1.0],"is_active_output":false,"name":"Background","outputs":[[0,0,0,0]],"type":"BACKGROUND_BL"}]},"useCastShadows":true}},"name":"Verge3D_Environment_World"}],"meshes":[{"extensions":{"S8S_v3d_mesh_data":{"colorLayers":{},"uvLayers":{}}},"name":"Mesh_0.001","primitives":[{"attributes":{"NORMAL":2,"POSITION":1},"indices":0,"material":2,"mode":4}]},{"extensions":{"S8S_v3d_mesh_data":{"colorLayers":{},"uvLayers":{}}},"name":"Mesh_1","primitives":[{"attributes":{"NORMAL":5,"POSITION":4},"indices":3,"material":1,"mode":4}]},{"extensions":{"S8S_v3d_mesh_data":{"colorLayers":{},"uvLayers":{}}},"name":"Mesh_2","primitives":[{"attributes":{"NORMAL":8,"POSITION":7},"indices":6,"material":0,"mode":4}]}],"nodes":[{"camera":0,"extensions":{"S8S_v3d_node_data":{"frustumCulling":true,"groupNames":["Collection"],"hidden":false,"hidpiCompositing":false,"objectColor":[0.0,0.0,0.0],"objectIndex":0,"renderOrder":0}},"name":"Camera","rotation":[-0.0026615888345986605,-0.09272893518209457,-0.00024414455401711166,0.9956878423690796],"scale":[1.0,0.9999998807907104,0.9999998807907104],"translation":[-0.35739201307296753,0.14015713334083557,1.7739475965499878]},{"extensions":{"S8S_v3d_node_data":{"frustumCulling":true,"groupNames":["Collection"],"hidden":false,"hidpiCompositing":false,"objectColor":[1.0,1.0,1.0],"objectIndex":0,"renderOrder":0,"useShadows":true}},"mesh":1,"name":"Skeletal","scale":[0.014000000432133675,0.014000000432133675,0.014000000432133675]},{"extensions":{"S8S_v3d_node_data":{"frustumCulling":true,"groupNames":["Collection"],"hidden":false,"hidpiCompositing":false,"objectColor":[1.0,1.0,1.0],"objectIndex":0,"renderOrder":0,"useShadows":true}},"mesh":0,"name":"Body.001","scale":[0.014000000432133675,0.014000000432133675,0.014000000432133675]},{"extensions":{"S8S_v3d_node_data":{"frustumCulling":true,"groupNames":["Collection"],"hidden":false,"hidpiCompositing":false,"objectColor":[1.0,1.0,1.0],"objectIndex":0,"renderOrder":0,"useShadows":true}},"mesh":2,"name":"Circulatory_Heart","scale":[0.014000000432133675,0.014000000432133675,0.014000000432133675]}],"scene":0,"scenes":[{"extensions":{"S8S_v3d_scene_data":{"aaMethod":"AUTO","iblEnvironmentMode":"PMREM","physicallyCorrectLights":true,"pmremMaxTileSize":512,"postprocessing":[{"bounceApprox":true,"distance":0.20000000298023224,"factor":1.0,"precision":0.25,"type":"ao"}],"shadowMap":{"esmDistanceScale":1.0,"renderReverseSided":false,"renderSingleSided":true,"type":"PCFPOISSON"},"toneMapping":{"type":"filmicBlender"},"worldMaterial":3}},"extras":{"animFrameRate":24,"coordSystem":"Z_UP_RIGHT"},"name":"Scene","nodes":[0,2,1,3]}]}
