{
	"nodes":[{
		"name":"Retopo_心脏",
		"translation":[0.0,
		1.4103432893753052,
		0.03135659173130989],
		"rotation":[0.0,
		0.0,
		0.0,
		-1.0],
		"scale":[1.0,
		1.0,
		1.0],
		"mesh":0
	}],
	"asset":{
		"version":"2.0",
		"generator":"Created using the official Cinema 4D glTF Exporter 1.000x284978"
	},
	"scenes":[{
		"nodes":[0]
	}],
	"meshes":[{
		"primitives":[{
			"attributes":{
				"POSITION":1,
				"NORMAL":2
			},
			"indices":0
		}],
		"name":"Retopo_心脏"
	}],
	"accessors":[{
		"bufferView":0,
		"min":[0],
		"componentType":5123,
		"type":"SCALAR",
		"count":12162,
		"byteOffset":0,
		"max":[2557]
	},
	{
		"bufferView":1,
		"min":[-0.0774417370557785,
		-0.07352331280708313,
		-0.056143324822187427],
		"componentType":5126,
		"type":"VEC3",
		"count":2558,
		"byteOffset":0,
		"max":[0.08757989853620529,
		0.04096400737762451,
		0.04450266435742378]
	},
	{
		"bufferView":1,
		"min":[-0.9998136162757874,
		-0.9992469549179077,
		-0.9999534487724304],
		"componentType":5126,
		"type":"VEC3",
		"count":2558,
		"byteOffset":12,
		"max":[0.9989280104637146,
		0.9998818635940552,
		0.9999101161956787]
	},
	{
		"bufferView":2,
		"min":[0.0],
		"componentType":5126,
		"type":"SCALAR",
		"count":91,
		"byteOffset":0,
		"max":[3.0]
	},
	{
		"bufferView":2,
		"min":[0.0,
		1.4103432893753052,
		0.03135659173130989],
		"componentType":5126,
		"type":"VEC3",
		"count":91,
		"byteOffset":364,
		"max":[1.0,
		1.4103432893753052,
		0.03135659173130989]
	}],
	"bufferViews":[{
		"buffer":0,
		"byteOffset":0,
		"byteLength":24324,
		"target":34963
	},
	{
		"buffer":0,
		"byteOffset":24324,
		"byteLength":61392,
		"target":34962,
		"byteStride":24
	},
	{
		"buffer":1,
		"byteOffset":0,
		"byteLength":1456
	}],
	"animations":[{
		"samplers":[{
			"input":3,
			"interpolation":"LINEAR",
			"output":4
		}],
		"channels":[{
			"sampler":0,
			"target":{
				"node":0,
				"path":"translation"
			}
		}]
	}],
	"buffers":[{
		"uri":"data:application/octet-stream;base64,",
		"byteLength":85716
	},
	{
		"uri":"data:application/octet-stream;base64,",
		"byteLength":1456
	}]
}